<svg xmlns="http://www.w3.org/2000/svg" viewBox="0 0 512 512" role="img" aria-label="Tennis Note">
  <rect width="512" height="512" rx="112" fill="#0f766e"/>
  <circle cx="376" cy="136" r="64" fill="#f8d24a"/>
  <path d="M112 154h206v58h-73v172h-60V212h-73z" fill="#ffffff"/>
  <path d="M300 238c54 0 96 38 96 88 0 51-42 88-96 88-55 0-97-37-97-88 0-50 42-88 97-88Zm0 53c-21 0-36 14-36 35 0 22 15 36 36 36 20 0 35-14 35-36 0-21-15-35-35-35Z" fill="#ffffff"/>
  <path d="M101 411c68-45 156-58 255-33" fill="none" stroke="#c7f9df" stroke-width="22" stroke-linecap="round"/>
</svg>
